<mxfile host="65bd71144e">
    <diagram id="migKeFc_42KSMQu3nTl5" name="Page-1">
        <mxGraphModel dx="1442" dy="1851" grid="1" gridSize="10" guides="1" tooltips="1" connect="1" arrows="1" fold="1" page="1" pageScale="1" pageWidth="827" pageHeight="1169" math="0" shadow="0">
            <root>
                <mxCell id="0"/>
                <mxCell id="1" parent="0"/>
                <mxCell id="41" value="" style="endArrow=classic;html=1;exitX=0.5;exitY=1;exitDx=0;exitDy=0;startArrow=diamondThin;startFill=1;endSize=6;startSize=18;entryX=0.5;entryY=0;entryDx=0;entryDy=0;" parent="1" source="69" target="250" edge="1">
                    <mxGeometry relative="1" as="geometry">
                        <mxPoint x="-232.94000000000005" y="-727" as="sourcePoint"/>
                        <mxPoint x="-230" y="-620" as="targetPoint"/>
                    </mxGeometry>
                </mxCell>
                <mxCell id="42" value="include" style="edgeLabel;resizable=0;html=1;align=center;verticalAlign=middle;" parent="41" connectable="0" vertex="1">
                    <mxGeometry relative="1" as="geometry">
                        <mxPoint y="-9" as="offset"/>
                    </mxGeometry>
                </mxCell>
                <mxCell id="44" value="1..20" style="edgeLabel;resizable=0;html=1;align=right;verticalAlign=bottom;" parent="41" connectable="0" vertex="1">
                    <mxGeometry x="1" relative="1" as="geometry">
                        <mxPoint x="-6" y="-5" as="offset"/>
                    </mxGeometry>
                </mxCell>
                <mxCell id="69" value="Game" style="swimlane;fontStyle=1;align=center;verticalAlign=top;childLayout=stackLayout;horizontal=1;startSize=26;horizontalStack=0;resizeParent=1;resizeParentMax=0;resizeLast=0;collapsible=1;marginBottom=0;" parent="1" vertex="1">
                    <mxGeometry x="-300" y="-1060" width="160" height="294" as="geometry"/>
                </mxCell>
                <mxCell id="70" value="+ id: int" style="text;strokeColor=none;fillColor=none;align=left;verticalAlign=top;spacingLeft=4;spacingRight=4;overflow=hidden;rotatable=0;points=[[0,0.5],[1,0.5]];portConstraint=eastwest;" parent="69" vertex="1">
                    <mxGeometry y="26" width="160" height="26" as="geometry"/>
                </mxCell>
                <mxCell id="73" value="+ nbPlayer: int" style="text;strokeColor=none;fillColor=none;align=left;verticalAlign=top;spacingLeft=4;spacingRight=4;overflow=hidden;rotatable=0;points=[[0,0.5],[1,0.5]];portConstraint=eastwest;" parent="69" vertex="1">
                    <mxGeometry y="52" width="160" height="26" as="geometry"/>
                </mxCell>
                <mxCell id="74" value="+ dayLength: int" style="text;strokeColor=none;fillColor=none;align=left;verticalAlign=top;spacingLeft=4;spacingRight=4;overflow=hidden;rotatable=0;points=[[0,0.5],[1,0.5]];portConstraint=eastwest;" parent="69" vertex="1">
                    <mxGeometry y="78" width="160" height="26" as="geometry"/>
                </mxCell>
                <mxCell id="75" value="+ nightLength: int" style="text;strokeColor=none;fillColor=none;align=left;verticalAlign=top;spacingLeft=4;spacingRight=4;overflow=hidden;rotatable=0;points=[[0,0.5],[1,0.5]];portConstraint=eastwest;" parent="69" vertex="1">
                    <mxGeometry y="104" width="160" height="26" as="geometry"/>
                </mxCell>
                <mxCell id="76" value="+ startDate: int" style="text;strokeColor=none;fillColor=none;align=left;verticalAlign=top;spacingLeft=4;spacingRight=4;overflow=hidden;rotatable=0;points=[[0,0.5],[1,0.5]];portConstraint=eastwest;" parent="69" vertex="1">
                    <mxGeometry y="130" width="160" height="26" as="geometry"/>
                </mxCell>
                <mxCell id="77" value="+ percentageWerewolf: int" style="text;strokeColor=none;fillColor=none;align=left;verticalAlign=top;spacingLeft=4;spacingRight=4;overflow=hidden;rotatable=0;points=[[0,0.5],[1,0.5]];portConstraint=eastwest;" parent="69" vertex="1">
                    <mxGeometry y="156" width="160" height="26" as="geometry"/>
                </mxCell>
                <mxCell id="78" value="+ probaContamination: int" style="text;strokeColor=none;fillColor=none;align=left;verticalAlign=top;spacingLeft=4;spacingRight=4;overflow=hidden;rotatable=0;points=[[0,0.5],[1,0.5]];portConstraint=eastwest;" parent="69" vertex="1">
                    <mxGeometry y="182" width="160" height="26" as="geometry"/>
                </mxCell>
                <mxCell id="79" value="+ probaInsomnie: int" style="text;strokeColor=none;fillColor=none;align=left;verticalAlign=top;spacingLeft=4;spacingRight=4;overflow=hidden;rotatable=0;points=[[0,0.5],[1,0.5]];portConstraint=eastwest;" parent="69" vertex="1">
                    <mxGeometry y="208" width="160" height="26" as="geometry"/>
                </mxCell>
                <mxCell id="80" value="+ probaVoyance: int" style="text;strokeColor=none;fillColor=none;align=left;verticalAlign=top;spacingLeft=4;spacingRight=4;overflow=hidden;rotatable=0;points=[[0,0.5],[1,0.5]];portConstraint=eastwest;" parent="69" vertex="1">
                    <mxGeometry y="234" width="160" height="26" as="geometry"/>
                </mxCell>
                <mxCell id="81" value="+ ProbaSpiritisme: int" style="text;strokeColor=none;fillColor=none;align=left;verticalAlign=top;spacingLeft=4;spacingRight=4;overflow=hidden;rotatable=0;points=[[0,0.5],[1,0.5]];portConstraint=eastwest;" parent="69" vertex="1">
                    <mxGeometry y="260" width="160" height="26" as="geometry"/>
                </mxCell>
                <mxCell id="71" value="" style="line;strokeWidth=1;fillColor=none;align=left;verticalAlign=middle;spacingTop=-1;spacingLeft=3;spacingRight=3;rotatable=0;labelPosition=right;points=[];portConstraint=eastwest;strokeColor=inherit;" parent="69" vertex="1">
                    <mxGeometry y="286" width="160" height="8" as="geometry"/>
                </mxCell>
                <mxCell id="112" value="Message" style="swimlane;fontStyle=0;align=center;verticalAlign=top;childLayout=stackLayout;horizontal=1;startSize=30;horizontalStack=0;resizeParent=1;resizeParentMax=0;resizeLast=0;collapsible=0;marginBottom=0;html=1;" parent="1" vertex="1">
                    <mxGeometry x="80" y="-800" width="230" height="98" as="geometry"/>
                </mxCell>
                <mxCell id="114" value="- id: int&lt;br&gt;- Text: string&lt;br&gt;- Time: Date&amp;nbsp;" style="text;html=1;strokeColor=none;fillColor=none;align=left;verticalAlign=middle;spacingLeft=4;spacingRight=4;overflow=hidden;rotatable=0;points=[[0,0.5],[1,0.5]];portConstraint=eastwest;" parent="112" vertex="1">
                    <mxGeometry y="30" width="230" height="60" as="geometry"/>
                </mxCell>
                <mxCell id="117" value="" style="line;strokeWidth=1;fillColor=none;align=left;verticalAlign=middle;spacingTop=-1;spacingLeft=3;spacingRight=3;rotatable=0;labelPosition=right;points=[];portConstraint=eastwest;" parent="112" vertex="1">
                    <mxGeometry y="90" width="230" height="8" as="geometry"/>
                </mxCell>
                <mxCell id="136" style="edgeStyle=none;html=1;exitX=1;exitY=0.5;exitDx=0;exitDy=0;startArrow=diamondThin;startFill=1;startSize=18;endArrow=none;endFill=0;" parent="1" target="144" edge="1">
                    <mxGeometry relative="1" as="geometry">
                        <mxPoint x="-139.54000000000002" y="-945.22" as="sourcePoint"/>
                        <mxPoint x="270.00000000000045" y="-940.788" as="targetPoint"/>
                    </mxGeometry>
                </mxCell>
                <mxCell id="153" value="&lt;span style=&quot;font-size: 12px; background-color: rgb(42, 37, 47);&quot;&gt;chatWerewolf&lt;/span&gt;" style="edgeLabel;html=1;align=center;verticalAlign=middle;resizable=0;points=[];" parent="136" vertex="1" connectable="0">
                    <mxGeometry x="0.2865" y="-3" relative="1" as="geometry">
                        <mxPoint x="-64" y="-4" as="offset"/>
                    </mxGeometry>
                </mxCell>
                <mxCell id="469" value="1" style="edgeLabel;html=1;align=center;verticalAlign=middle;resizable=0;points=[];" vertex="1" connectable="0" parent="136">
                    <mxGeometry x="0.8341" relative="1" as="geometry">
                        <mxPoint x="-22" y="-12" as="offset"/>
                    </mxGeometry>
                </mxCell>
                <mxCell id="148" style="edgeStyle=none;html=1;startArrow=diamondThin;startFill=1;startSize=18;entryX=0.5;entryY=0;entryDx=0;entryDy=0;endArrow=none;endFill=0;" parent="1" source="144" target="112" edge="1">
                    <mxGeometry relative="1" as="geometry"/>
                </mxCell>
                <mxCell id="149" value="messages" style="edgeLabel;html=1;align=center;verticalAlign=middle;resizable=0;points=[];" parent="148" vertex="1" connectable="0">
                    <mxGeometry x="-0.0707" y="2" relative="1" as="geometry">
                        <mxPoint as="offset"/>
                    </mxGeometry>
                </mxCell>
                <mxCell id="150" value="1" style="edgeLabel;html=1;align=center;verticalAlign=middle;resizable=0;points=[];" parent="148" vertex="1" connectable="0">
                    <mxGeometry x="-0.7175" y="2" relative="1" as="geometry">
                        <mxPoint x="25" y="-1" as="offset"/>
                    </mxGeometry>
                </mxCell>
                <mxCell id="151" value="1..*" style="edgeLabel;html=1;align=center;verticalAlign=middle;resizable=0;points=[];" parent="148" vertex="1" connectable="0">
                    <mxGeometry x="0.7092" y="3" relative="1" as="geometry">
                        <mxPoint x="-33" y="-4" as="offset"/>
                    </mxGeometry>
                </mxCell>
                <mxCell id="144" value="&lt;b&gt;Chat&lt;/b&gt;" style="swimlane;fontStyle=0;align=center;verticalAlign=top;childLayout=stackLayout;horizontal=1;startSize=30;horizontalStack=0;resizeParent=1;resizeParentMax=0;resizeLast=0;collapsible=0;marginBottom=0;html=1;" parent="1" vertex="1">
                    <mxGeometry x="80" y="-979" width="230" height="58" as="geometry"/>
                </mxCell>
                <mxCell id="145" value="id: int" style="text;html=1;strokeColor=none;fillColor=none;align=left;verticalAlign=middle;spacingLeft=4;spacingRight=4;overflow=hidden;rotatable=0;points=[[0,0.5],[1,0.5]];portConstraint=eastwest;" parent="144" vertex="1">
                    <mxGeometry y="30" width="230" height="20" as="geometry"/>
                </mxCell>
                <mxCell id="146" value="" style="line;strokeWidth=1;fillColor=none;align=left;verticalAlign=middle;spacingTop=-1;spacingLeft=3;spacingRight=3;rotatable=0;labelPosition=right;points=[];portConstraint=eastwest;" parent="144" vertex="1">
                    <mxGeometry y="50" width="230" height="8" as="geometry"/>
                </mxCell>
                <mxCell id="155" style="edgeStyle=none;html=1;entryX=1;entryY=0;entryDx=0;entryDy=0;endArrow=none;endFill=0;startArrow=diamondThin;startFill=0;startSize=16;" parent="1" source="112" target="250" edge="1">
                    <mxGeometry relative="1" as="geometry">
                        <mxPoint x="100" y="-850" as="sourcePoint"/>
                    </mxGeometry>
                </mxCell>
                <mxCell id="157" value="sender" style="edgeLabel;html=1;align=center;verticalAlign=middle;resizable=0;points=[];" parent="155" vertex="1" connectable="0">
                    <mxGeometry x="-0.0067" y="2" relative="1" as="geometry">
                        <mxPoint x="-14" y="-16" as="offset"/>
                    </mxGeometry>
                </mxCell>
                <mxCell id="159" value="1..*" style="edgeLabel;html=1;align=center;verticalAlign=middle;resizable=0;points=[];" parent="155" vertex="1" connectable="0">
                    <mxGeometry x="-0.9088" relative="1" as="geometry">
                        <mxPoint x="-11" y="-11" as="offset"/>
                    </mxGeometry>
                </mxCell>
                <mxCell id="160" value="1" style="edgeLabel;html=1;align=center;verticalAlign=middle;resizable=0;points=[];" parent="155" vertex="1" connectable="0">
                    <mxGeometry x="0.9233" y="1" relative="1" as="geometry">
                        <mxPoint x="-13" y="-14" as="offset"/>
                    </mxGeometry>
                </mxCell>
                <mxCell id="161" value="&lt;span style=&quot;font-size: 12px; background-color: rgb(42, 37, 47);&quot;&gt;chatVillagers&lt;/span&gt;" style="edgeStyle=none;html=1;exitX=1.002;exitY=0.259;exitDx=0;exitDy=0;entryX=0;entryY=0.25;entryDx=0;entryDy=0;exitPerimeter=0;startArrow=diamondThin;startFill=1;startSize=18;endArrow=none;endFill=0;" parent="1" source="73" target="144" edge="1">
                    <mxGeometry relative="1" as="geometry"/>
                </mxCell>
                <mxCell id="470" value="1" style="edgeLabel;html=1;align=center;verticalAlign=middle;resizable=0;points=[];" vertex="1" connectable="0" parent="161">
                    <mxGeometry x="0.6469" relative="1" as="geometry">
                        <mxPoint y="-8" as="offset"/>
                    </mxGeometry>
                </mxCell>
                <mxCell id="162" style="edgeStyle=none;html=1;exitX=1;exitY=0.5;exitDx=0;exitDy=0;startArrow=diamondThin;startFill=1;startSize=18;endArrow=none;endFill=0;" parent="1" source="77" target="144" edge="1">
                    <mxGeometry relative="1" as="geometry">
                        <mxPoint x="68.62000000000012" y="-890.378" as="targetPoint"/>
                    </mxGeometry>
                </mxCell>
                <mxCell id="163" value="&lt;span style=&quot;font-size: 12px; background-color: rgb(42, 37, 47);&quot;&gt;chatSpiritist&lt;/span&gt;" style="edgeLabel;html=1;align=center;verticalAlign=middle;resizable=0;points=[];" parent="162" vertex="1" connectable="0">
                    <mxGeometry x="-0.1157" y="2" relative="1" as="geometry">
                        <mxPoint x="19" y="2" as="offset"/>
                    </mxGeometry>
                </mxCell>
                <mxCell id="281" value="1" style="edgeLabel;html=1;align=center;verticalAlign=middle;resizable=0;points=[];" parent="162" vertex="1" connectable="0">
                    <mxGeometry x="0.9062" relative="1" as="geometry">
                        <mxPoint x="-30" y="-10" as="offset"/>
                    </mxGeometry>
                </mxCell>
                <mxCell id="250" value="&lt;b&gt;Player&lt;br&gt;&lt;/b&gt;" style="swimlane;fontStyle=0;align=center;verticalAlign=top;childLayout=stackLayout;horizontal=1;startSize=30;horizontalStack=0;resizeParent=1;resizeParentMax=0;resizeLast=0;collapsible=0;marginBottom=0;html=1;strokeColor=default;" parent="1" vertex="1">
                    <mxGeometry x="-305" y="-640" width="170" height="98" as="geometry"/>
                </mxCell>
                <mxCell id="252" value="isAlive: Boolean" style="text;html=1;strokeColor=none;fillColor=none;align=left;verticalAlign=middle;spacingLeft=4;spacingRight=4;overflow=hidden;rotatable=0;points=[[0,0.5],[1,0.5]];portConstraint=eastwest;" parent="250" vertex="1">
                    <mxGeometry y="30" width="170" height="30" as="geometry"/>
                </mxCell>
                <mxCell id="437" value="isWerewolf: Boolean" style="text;html=1;strokeColor=none;fillColor=none;align=left;verticalAlign=middle;spacingLeft=4;spacingRight=4;overflow=hidden;rotatable=0;points=[[0,0.5],[1,0.5]];portConstraint=eastwest;" parent="250" vertex="1">
                    <mxGeometry y="60" width="170" height="30" as="geometry"/>
                </mxCell>
                <mxCell id="255" value="" style="line;strokeWidth=1;fillColor=none;align=left;verticalAlign=middle;spacingTop=-1;spacingLeft=3;spacingRight=3;rotatable=0;labelPosition=right;points=[];portConstraint=eastwest;strokeColor=default;" parent="250" vertex="1">
                    <mxGeometry y="90" width="170" height="8" as="geometry"/>
                </mxCell>
                <mxCell id="431" style="edgeStyle=none;html=1;strokeColor=#330000;endArrow=block;endFill=0;fillColor=#f8cecc;gradientColor=#ea6b66;exitX=0.5;exitY=0;exitDx=0;exitDy=0;" parent="1" edge="1">
                    <mxGeometry relative="1" as="geometry">
                        <mxPoint x="284" y="-384.5" as="sourcePoint"/>
                        <mxPoint x="464.48888888888905" y="-712" as="targetPoint"/>
                    </mxGeometry>
                </mxCell>
                <mxCell id="438" value="&lt;b&gt;&amp;lt;&amp;lt; interface &amp;gt;&amp;gt;&lt;br&gt;Power&lt;br&gt;&lt;/b&gt;" style="swimlane;fontStyle=0;align=center;verticalAlign=top;childLayout=stackLayout;horizontal=1;startSize=40;horizontalStack=0;resizeParent=1;resizeParentMax=0;resizeLast=0;collapsible=0;marginBottom=0;html=1;strokeColor=default;" parent="1" vertex="1">
                    <mxGeometry y="-650" width="170" height="108" as="geometry"/>
                </mxCell>
                <mxCell id="439" value="isAlive: Boolean" style="text;html=1;strokeColor=none;fillColor=none;align=left;verticalAlign=middle;spacingLeft=4;spacingRight=4;overflow=hidden;rotatable=0;points=[[0,0.5],[1,0.5]];portConstraint=eastwest;" parent="438" vertex="1">
                    <mxGeometry y="40" width="170" height="30" as="geometry"/>
                </mxCell>
                <mxCell id="440" value="isWerewolf: Boolean" style="text;html=1;strokeColor=none;fillColor=none;align=left;verticalAlign=middle;spacingLeft=4;spacingRight=4;overflow=hidden;rotatable=0;points=[[0,0.5],[1,0.5]];portConstraint=eastwest;" parent="438" vertex="1">
                    <mxGeometry y="70" width="170" height="30" as="geometry"/>
                </mxCell>
                <mxCell id="441" value="" style="line;strokeWidth=1;fillColor=none;align=left;verticalAlign=middle;spacingTop=-1;spacingLeft=3;spacingRight=3;rotatable=0;labelPosition=right;points=[];portConstraint=eastwest;strokeColor=default;" parent="438" vertex="1">
                    <mxGeometry y="100" width="170" height="8" as="geometry"/>
                </mxCell>
                <mxCell id="465" style="edgeStyle=orthogonalEdgeStyle;html=1;entryX=0.5;entryY=1;entryDx=0;entryDy=0;endArrow=block;endFill=0;endSize=10;" edge="1" parent="1" source="442" target="438">
                    <mxGeometry relative="1" as="geometry">
                        <Array as="points">
                            <mxPoint x="285" y="-480"/>
                            <mxPoint x="85" y="-480"/>
                        </Array>
                    </mxGeometry>
                </mxCell>
                <mxCell id="474" style="edgeStyle=orthogonalEdgeStyle;html=1;dashed=1;dashPattern=8 8;startArrow=none;startFill=0;endArrow=none;endFill=0;startSize=16;" edge="1" parent="1" source="442">
                    <mxGeometry relative="1" as="geometry">
                        <mxPoint x="270" y="-330" as="targetPoint"/>
                        <Array as="points">
                            <mxPoint x="285" y="-330"/>
                        </Array>
                    </mxGeometry>
                </mxCell>
                <mxCell id="442" value="&lt;b&gt;Contamination&lt;br&gt;&lt;/b&gt;" style="swimlane;fontStyle=0;align=center;verticalAlign=top;childLayout=stackLayout;horizontal=1;startSize=30;horizontalStack=0;resizeParent=1;resizeParentMax=0;resizeLast=0;collapsible=0;marginBottom=0;html=1;strokeColor=default;" parent="1" vertex="1">
                    <mxGeometry x="200" y="-420" width="170" height="38" as="geometry"/>
                </mxCell>
                <mxCell id="445" value="" style="line;strokeWidth=1;fillColor=none;align=left;verticalAlign=middle;spacingTop=-1;spacingLeft=3;spacingRight=3;rotatable=0;labelPosition=right;points=[];portConstraint=eastwest;strokeColor=default;" parent="442" vertex="1">
                    <mxGeometry y="30" width="170" height="8" as="geometry"/>
                </mxCell>
                <mxCell id="463" style="edgeStyle=orthogonalEdgeStyle;html=1;entryX=0.5;entryY=1;entryDx=0;entryDy=0;endArrow=block;endFill=0;endSize=10;" edge="1" parent="1" source="446" target="438">
                    <mxGeometry relative="1" as="geometry">
                        <Array as="points">
                            <mxPoint x="85" y="-450"/>
                            <mxPoint x="85" y="-450"/>
                        </Array>
                    </mxGeometry>
                </mxCell>
                <mxCell id="446" value="&lt;b&gt;Insomnia&lt;br&gt;&lt;/b&gt;" style="swimlane;fontStyle=0;align=center;verticalAlign=top;childLayout=stackLayout;horizontal=1;startSize=30;horizontalStack=0;resizeParent=1;resizeParentMax=0;resizeLast=0;collapsible=0;marginBottom=0;html=1;strokeColor=default;" parent="1" vertex="1">
                    <mxGeometry y="-420" width="170" height="38" as="geometry"/>
                </mxCell>
                <mxCell id="449" value="" style="line;strokeWidth=1;fillColor=none;align=left;verticalAlign=middle;spacingTop=-1;spacingLeft=3;spacingRight=3;rotatable=0;labelPosition=right;points=[];portConstraint=eastwest;strokeColor=default;" parent="446" vertex="1">
                    <mxGeometry y="30" width="170" height="8" as="geometry"/>
                </mxCell>
                <mxCell id="462" style="edgeStyle=orthogonalEdgeStyle;html=1;entryX=0.5;entryY=1;entryDx=0;entryDy=0;endArrow=block;endFill=0;endSize=10;" edge="1" parent="1" source="450" target="438">
                    <mxGeometry relative="1" as="geometry">
                        <Array as="points">
                            <mxPoint x="-100" y="-480"/>
                            <mxPoint x="85" y="-480"/>
                        </Array>
                    </mxGeometry>
                </mxCell>
                <mxCell id="475" style="edgeStyle=orthogonalEdgeStyle;html=1;dashed=1;dashPattern=8 8;startArrow=none;startFill=0;endArrow=none;endFill=0;startSize=16;" edge="1" parent="1" source="450">
                    <mxGeometry relative="1" as="geometry">
                        <mxPoint x="-130" y="-330" as="targetPoint"/>
                        <Array as="points">
                            <mxPoint x="-105" y="-330"/>
                        </Array>
                    </mxGeometry>
                </mxCell>
                <mxCell id="450" value="&lt;b&gt;Voyante&lt;br&gt;&lt;/b&gt;" style="swimlane;fontStyle=0;align=center;verticalAlign=top;childLayout=stackLayout;horizontal=1;startSize=30;horizontalStack=0;resizeParent=1;resizeParentMax=0;resizeLast=0;collapsible=0;marginBottom=0;html=1;strokeColor=default;" parent="1" vertex="1">
                    <mxGeometry x="-190" y="-420" width="170" height="38" as="geometry"/>
                </mxCell>
                <mxCell id="453" value="" style="line;strokeWidth=1;fillColor=none;align=left;verticalAlign=middle;spacingTop=-1;spacingLeft=3;spacingRight=3;rotatable=0;labelPosition=right;points=[];portConstraint=eastwest;strokeColor=default;" parent="450" vertex="1">
                    <mxGeometry y="30" width="170" height="8" as="geometry"/>
                </mxCell>
                <mxCell id="467" style="edgeStyle=orthogonalEdgeStyle;html=1;entryX=0.5;entryY=1;entryDx=0;entryDy=0;endArrow=block;endFill=0;endSize=10;" edge="1" parent="1" source="454" target="438">
                    <mxGeometry relative="1" as="geometry">
                        <Array as="points">
                            <mxPoint x="495" y="-480"/>
                            <mxPoint x="85" y="-480"/>
                        </Array>
                    </mxGeometry>
                </mxCell>
                <mxCell id="473" style="edgeStyle=orthogonalEdgeStyle;html=1;dashed=1;dashPattern=8 8;startArrow=none;startFill=0;endArrow=classic;endFill=1;startSize=16;entryX=0.5;entryY=1;entryDx=0;entryDy=0;" edge="1" parent="1" source="454" target="250">
                    <mxGeometry relative="1" as="geometry">
                        <mxPoint x="-260" y="-340" as="targetPoint"/>
                        <Array as="points">
                            <mxPoint x="495" y="-330"/>
                            <mxPoint x="-220" y="-330"/>
                        </Array>
                    </mxGeometry>
                </mxCell>
                <mxCell id="477" value="1" style="edgeLabel;html=1;align=center;verticalAlign=middle;resizable=0;points=[];" vertex="1" connectable="0" parent="473">
                    <mxGeometry x="0.9673" y="-1" relative="1" as="geometry">
                        <mxPoint x="19" as="offset"/>
                    </mxGeometry>
                </mxCell>
                <mxCell id="454" value="&lt;b&gt;Clairvoyance&lt;br&gt;&lt;/b&gt;" style="swimlane;fontStyle=0;align=center;verticalAlign=top;childLayout=stackLayout;horizontal=1;startSize=30;horizontalStack=0;resizeParent=1;resizeParentMax=0;resizeLast=0;collapsible=0;marginBottom=0;html=1;strokeColor=default;" parent="1" vertex="1">
                    <mxGeometry x="410" y="-420" width="170" height="38" as="geometry"/>
                </mxCell>
                <mxCell id="457" value="" style="line;strokeWidth=1;fillColor=none;align=left;verticalAlign=middle;spacingTop=-1;spacingLeft=3;spacingRight=3;rotatable=0;labelPosition=right;points=[];portConstraint=eastwest;strokeColor=default;" parent="454" vertex="1">
                    <mxGeometry y="30" width="170" height="8" as="geometry"/>
                </mxCell>
                <mxCell id="468" style="edgeStyle=orthogonalEdgeStyle;html=1;entryX=0;entryY=0.5;entryDx=0;entryDy=0;startArrow=diamondThin;startFill=1;startSize=16;endArrow=none;endFill=0;" edge="1" parent="1" source="252" target="439">
                    <mxGeometry relative="1" as="geometry"/>
                </mxCell>
                <mxCell id="476" value="0,1" style="edgeLabel;html=1;align=center;verticalAlign=middle;resizable=0;points=[];" vertex="1" connectable="0" parent="468">
                    <mxGeometry x="0.6995" y="-3" relative="1" as="geometry">
                        <mxPoint y="-18" as="offset"/>
                    </mxGeometry>
                </mxCell>
            </root>
        </mxGraphModel>
    </diagram>
</mxfile>